<svg width="204" height="79" viewBox="0 0 204 79" fill="none" xmlns="http://www.w3.org/2000/svg">
<path d="M168.204 13.1667H35.8018C35.3192 13.1667 34.8423 13.1667 34.361 13.1693C33.9581 13.1719 33.5583 13.1796 33.1515 13.186C32.2678 13.1964 31.3861 13.2742 30.5141 13.4187C29.6434 13.5663 28.8 13.8446 28.0123 14.2442C27.2257 14.6472 26.5069 15.1709 25.882 15.7962C25.2538 16.4197 24.7302 17.1404 24.3313 17.9306C23.9313 18.7192 23.6539 19.5643 23.5087 20.4366C23.3622 21.3079 23.2833 22.1892 23.2729 23.0726C23.2607 23.4763 23.2594 23.8813 23.2529 24.2851V54.7188C23.2594 55.1277 23.2607 55.5237 23.2729 55.9327C23.2833 56.8161 23.3622 57.6973 23.5087 58.5685C23.6535 59.4414 23.9309 60.2869 24.3313 61.0758C24.7301 61.8635 25.2537 62.5813 25.882 63.2013C26.5045 63.8294 27.2238 64.3534 28.0123 64.7533C28.8 65.1539 29.6433 65.4339 30.5141 65.5838C31.3862 65.7272 32.2678 65.805 33.1515 65.8166C33.5583 65.8256 33.9581 65.8307 34.361 65.8307C34.8423 65.8333 35.3192 65.8333 35.8018 65.8333H168.204C168.678 65.8333 169.158 65.8333 169.631 65.8307C170.032 65.8307 170.443 65.8256 170.845 65.8166C171.727 65.8056 172.606 65.7278 173.477 65.5838C174.35 65.4329 175.197 65.153 175.988 64.7533C176.776 64.3532 177.495 63.8292 178.117 63.2013C178.743 62.5788 179.268 61.8616 179.672 61.0758C180.069 60.2863 180.344 59.4409 180.487 58.5685C180.633 57.6972 180.715 56.8161 180.731 55.9327C180.736 55.5237 180.736 55.1277 180.736 54.7188C180.746 54.2405 180.746 53.7648 180.746 53.2787V25.7226C180.746 25.2404 180.746 24.7621 180.736 24.2851C180.736 23.8813 180.736 23.4763 180.731 23.0725C180.715 22.189 180.633 21.3079 180.487 20.4366C180.344 19.5647 180.069 18.7197 179.672 17.9305C178.859 16.3467 177.571 15.0574 175.988 14.2441C175.197 13.8455 174.35 13.5673 173.477 13.4186C172.607 13.2735 171.727 13.1957 170.845 13.1858C170.443 13.1794 170.032 13.1717 169.631 13.1691C169.158 13.1665 168.678 13.1665 168.204 13.1665V13.1667Z" fill="#A6A6A6"/>
<path d="M34.3678 64.6814C33.9668 64.6814 33.5755 64.6762 33.1777 64.6673C32.3535 64.6565 31.5312 64.5847 30.7176 64.4525C29.959 64.3218 29.2241 64.0787 28.5372 63.7311C27.8565 63.3864 27.2357 62.9345 26.6985 62.3926C26.1536 61.8571 25.6999 61.236 25.3554 60.5539C25.0071 59.8673 24.7661 59.1315 24.6407 58.3719C24.5053 57.5557 24.4321 56.7304 24.4216 55.9031C24.4133 55.6254 24.4023 54.7009 24.4023 54.7009V24.2851C24.4023 24.2851 24.414 23.3748 24.4217 23.1073C24.4317 22.2814 24.5045 21.4574 24.6395 20.6424C24.7651 19.8808 25.0064 19.1428 25.3548 18.454C25.698 17.7724 26.1492 17.1508 26.6909 16.6134C27.2319 16.0708 27.8547 15.6166 28.5365 15.2671C29.2219 14.9207 29.9554 14.6793 30.7125 14.5509C31.5288 14.4174 32.3539 14.3452 33.1809 14.3349L34.3685 14.3188H169.625L170.827 14.3356C171.646 14.3453 172.464 14.4169 173.273 14.5496C174.038 14.6796 174.779 14.9227 175.472 15.271C176.838 15.9752 177.949 17.0893 178.65 18.4572C178.993 19.1412 179.231 19.8732 179.355 20.6283C179.491 21.4499 179.568 22.2804 179.584 23.1131C179.587 23.486 179.587 23.8865 179.587 24.2851C179.598 24.7789 179.598 25.2489 179.598 25.7227V53.2788C179.598 53.7571 179.598 54.2239 179.587 54.6944C179.587 55.1226 179.587 55.5148 179.582 55.9185C179.567 56.7364 179.492 57.5521 179.357 58.359C179.234 59.124 178.995 59.8657 178.647 60.5578C178.3 61.2325 177.849 61.8482 177.31 62.3823C176.772 62.9271 176.15 63.3817 175.468 63.7286C174.777 64.0788 174.037 64.3229 173.273 64.4525C172.459 64.5854 171.637 64.6572 170.813 64.6673C170.427 64.6762 170.024 64.6814 169.632 64.6814L168.205 64.684L34.3678 64.6814Z" fill="black"/>
<path d="M55.8521 39.8959C55.8663 38.7969 56.1581 37.7194 56.7004 36.7635C57.2426 35.8077 58.0178 35.0046 58.9537 34.429C58.3591 33.5796 57.5748 32.8805 56.6629 32.3873C55.7511 31.8942 54.7368 31.6205 53.7008 31.5881C51.4907 31.356 49.3481 32.9111 48.2219 32.9111C47.0738 32.9111 45.3398 31.6111 43.4726 31.6495C42.2648 31.6886 41.0878 32.0399 40.0561 32.6694C39.0244 33.2988 38.1733 34.1849 37.5857 35.2412C35.0403 39.65 36.9389 46.1294 39.3772 49.6931C40.5971 51.4381 42.0228 53.3874 43.8884 53.3183C45.7139 53.2425 46.3958 52.1537 48.5993 52.1537C50.7825 52.1537 51.4222 53.3183 53.3256 53.2743C55.2845 53.2425 56.5187 51.5215 57.6958 49.7599C58.5723 48.5165 59.2468 47.1423 59.6942 45.6881C58.5562 45.2066 57.585 44.4006 56.9017 43.3705C56.2185 42.3405 55.8535 41.1321 55.8521 39.8959Z" fill="white"/>
<path d="M52.2573 29.2444C53.3253 27.9617 53.8515 26.313 53.7241 24.6484C52.0923 24.8199 50.585 25.6001 49.5025 26.8336C48.9733 27.4362 48.5679 28.1372 48.3096 28.8966C48.0513 29.6561 47.9452 30.4589 47.9973 31.2594C48.8134 31.2678 49.6209 31.0909 50.3588 30.7418C51.0967 30.3928 51.7458 29.8808 52.2573 29.2444Z" fill="white"/>
<path d="M78.928 48.9008H72.6982L71.2022 53.3201H68.5635L74.4642 36.9697H77.2057L83.1064 53.3201H80.4228L78.928 48.9008ZM73.3434 46.8615H78.2815L75.8472 39.6892H75.7791L73.3434 46.8615Z" fill="white"/>
<path d="M95.8504 47.3604C95.8504 51.0648 93.8685 53.4448 90.8776 53.4448C90.12 53.4845 89.3665 53.3099 88.7035 52.941C88.0404 52.5722 87.4946 52.024 87.1285 51.3592H87.0719V57.2637H84.626V41.3994H86.9935V43.3821H87.0385C87.4214 42.7205 87.9765 42.1752 88.6446 41.8041C89.3127 41.433 90.0689 41.25 90.8326 41.2747C93.8569 41.2747 95.8504 43.6663 95.8504 47.3604ZM93.3364 47.3604C93.3364 44.9469 92.0896 43.3602 90.1874 43.3602C88.3186 43.3602 87.0616 44.9804 87.0616 47.3604C87.0616 49.7623 88.3186 51.3708 90.1874 51.3708C92.0897 51.3708 93.3364 49.7957 93.3364 47.3604Z" fill="white"/>
<path d="M108.965 47.3604C108.965 51.0648 106.983 53.4448 103.992 53.4448C103.234 53.4845 102.481 53.3099 101.818 52.941C101.155 52.5722 100.609 52.024 100.243 51.3592H100.186V57.2637H97.7402V41.3994H100.108V43.3821H100.153C100.536 42.7205 101.091 42.1752 101.759 41.8041C102.427 41.433 103.183 41.25 103.947 41.2747C106.971 41.2747 108.965 43.6663 108.965 47.3604ZM106.451 47.3604C106.451 44.9469 105.204 43.3602 103.302 43.3602C101.433 43.3602 100.176 44.9804 100.176 47.3604C100.176 49.7623 101.433 51.3708 103.302 51.3708C105.204 51.3708 106.451 49.7957 106.451 47.3604H106.451Z" fill="white"/>
<path d="M117.633 48.7644C117.814 50.3858 119.388 51.4504 121.54 51.4504C123.602 51.4504 125.085 50.3857 125.085 48.9238C125.085 47.6547 124.19 46.8948 122.072 46.374L119.954 45.8635C116.953 45.1384 115.56 43.7342 115.56 41.4558C115.56 38.6347 118.017 36.697 121.507 36.697C124.96 36.697 127.328 38.6347 127.407 41.4558H124.938C124.79 39.8241 123.442 38.8392 121.472 38.8392C119.501 38.8392 118.153 39.8357 118.153 41.2861C118.153 42.442 119.014 43.1222 121.121 43.6429L122.922 44.0852C126.275 44.8786 127.668 46.2261 127.668 48.6177C127.668 51.6766 125.233 53.5925 121.359 53.5925C117.734 53.5925 115.287 51.7216 115.129 48.7643L117.633 48.7644Z" fill="white"/>
<path d="M132.947 38.5781V41.3992H135.213V43.3369H132.947V49.9087C132.947 50.9296 133.401 51.4053 134.397 51.4053C134.666 51.4006 134.934 51.3817 135.201 51.3487V53.2749C134.753 53.3586 134.298 53.3965 133.843 53.388C131.43 53.388 130.489 52.4815 130.489 50.1696V43.3369H128.757V41.3992H130.489V38.5781H132.947Z" fill="white"/>
<path d="M136.525 47.3603C136.525 43.6096 138.733 41.2527 142.177 41.2527C145.632 41.2527 147.829 43.6095 147.829 47.3603C147.829 51.1213 145.643 53.4678 142.177 53.4678C138.712 53.4678 136.525 51.1212 136.525 47.3603ZM145.337 47.3603C145.337 44.7874 144.159 43.2688 142.177 43.2688C140.195 43.2688 139.018 44.7989 139.018 47.3603C139.018 49.9434 140.195 51.4504 142.177 51.4504C144.159 51.4504 145.337 49.9434 145.337 47.3603H145.337Z" fill="white"/>
<path d="M149.846 41.3993H152.179V43.4283H152.235C152.393 42.7946 152.764 42.2345 153.286 41.8423C153.808 41.4501 154.449 41.2496 155.101 41.2745C155.383 41.2735 155.664 41.3042 155.939 41.3658V43.6546C155.583 43.5458 155.212 43.4958 154.84 43.5067C154.485 43.4923 154.131 43.555 153.802 43.6904C153.473 43.8259 153.177 44.0309 152.935 44.2915C152.693 44.5521 152.51 44.8619 152.399 45.1999C152.288 45.5378 152.251 45.8958 152.292 46.2493V53.32H149.846L149.846 41.3993Z" fill="white"/>
<path d="M167.217 49.8187C166.888 51.9827 164.781 53.4678 162.086 53.4678C158.619 53.4678 156.468 51.1444 156.468 47.4168C156.468 43.6777 158.631 41.2527 161.983 41.2527C165.28 41.2527 167.353 43.5183 167.353 47.1327V47.971H158.937V48.1189C158.898 48.5576 158.953 48.9996 159.098 49.4154C159.243 49.8313 159.475 50.2115 159.778 50.5309C160.081 50.8502 160.449 51.1014 160.856 51.2677C161.264 51.434 161.702 51.5116 162.142 51.4954C162.72 51.5496 163.3 51.4157 163.796 51.1136C164.292 50.8115 164.677 50.3573 164.894 49.8187L167.217 49.8187ZM158.948 46.2609H164.906C164.928 45.8664 164.868 45.4717 164.73 45.1014C164.592 44.7312 164.38 44.3934 164.105 44.1093C163.831 43.8252 163.5 43.6009 163.135 43.4505C162.77 43.3002 162.378 43.2269 161.983 43.2354C161.585 43.233 161.19 43.3096 160.821 43.4607C160.453 43.6117 160.118 43.8343 159.836 44.1156C159.553 44.3969 159.33 44.7313 159.177 45.0995C159.025 45.4677 158.947 45.8624 158.948 46.2609V46.2609Z" fill="white"/>
<path d="M73.0368 24.6625C73.5496 24.6257 74.0641 24.7032 74.5434 24.8894C75.0226 25.0756 75.4545 25.3659 75.808 25.7393C76.1615 26.1128 76.4277 26.5601 76.5875 27.0489C76.7473 27.5377 76.7966 28.056 76.732 28.5662C76.732 31.0761 75.376 32.5188 73.0368 32.5188H70.2002V24.6625H73.0368ZM71.4199 31.4078H72.9006C73.267 31.4297 73.6337 31.3696 73.9739 31.2318C74.3142 31.0941 74.6195 30.8822 74.8676 30.6115C75.1157 30.3408 75.3003 30.0183 75.408 29.6672C75.5158 29.3162 75.5439 28.9455 75.4904 28.5822C75.54 28.2203 75.509 27.852 75.3996 27.5035C75.2902 27.155 75.1052 26.8351 74.8576 26.5666C74.6101 26.298 74.3063 26.0876 73.968 25.9504C73.6296 25.8131 73.2651 25.7525 72.9006 25.7727H71.4199V31.4078Z" fill="white"/>
<path d="M78.1099 29.5518C78.0726 29.1622 78.1172 28.7691 78.2407 28.3977C78.3642 28.0263 78.5639 27.6848 78.8271 27.3952C79.0902 27.1055 79.411 26.8741 79.7688 26.7158C80.1266 26.5574 80.5135 26.4756 80.9047 26.4756C81.296 26.4756 81.6829 26.5574 82.0407 26.7158C82.3985 26.8741 82.7193 27.1055 82.9824 27.3952C83.2456 27.6848 83.4453 28.0263 83.5688 28.3977C83.6923 28.7691 83.7369 29.1622 83.6996 29.5518C83.7376 29.9418 83.6935 30.3355 83.5704 30.7075C83.4472 31.0795 83.2476 31.4216 82.9843 31.7118C82.7211 32.002 82.4001 32.2339 82.042 32.3926C81.6838 32.5513 81.2965 32.6333 80.9047 32.6333C80.513 32.6333 80.1257 32.5513 79.7675 32.3926C79.4094 32.2339 79.0884 32.002 78.8251 31.7118C78.5619 31.4216 78.3623 31.0795 78.2391 30.7075C78.116 30.3355 78.0719 29.9418 78.1099 29.5518ZM82.4966 29.5518C82.4966 28.2667 81.9195 27.5151 80.9067 27.5151C79.89 27.5151 79.3181 28.2667 79.3181 29.5518C79.3181 30.8473 79.8901 31.593 80.9067 31.593C81.9195 31.593 82.4966 30.8421 82.4966 29.5518H82.4966Z" fill="white"/>
<path d="M91.1297 32.5187H89.9164L88.6916 28.1521H88.599L87.3793 32.5187H86.1775L84.5439 26.5898H85.7303L86.7919 31.1139H86.8793L88.0978 26.5898H89.2198L90.4383 31.1139H90.5308L91.5873 26.5898H92.7569L91.1297 32.5187Z" fill="white"/>
<path d="M94.1309 26.5898H95.2568V27.5316H95.3442C95.4924 27.1933 95.7425 26.9098 96.0595 26.7204C96.3765 26.5311 96.7447 26.4454 97.1127 26.4753C97.4011 26.4536 97.6906 26.4971 97.9599 26.6026C98.2292 26.708 98.4713 26.8728 98.6683 27.0845C98.8653 27.2963 99.0121 27.5497 99.098 27.826C99.1838 28.1023 99.2063 28.3943 99.164 28.6805V32.5186H97.9944V28.9743C97.9944 28.0215 97.5806 27.5477 96.7156 27.5477C96.5198 27.5386 96.3243 27.5719 96.1426 27.6454C95.9609 27.7189 95.7973 27.8309 95.6629 27.9736C95.5285 28.1163 95.4265 28.2864 95.3639 28.4722C95.3014 28.658 95.2797 28.8552 95.3005 29.0502V32.5186H94.1309L94.1309 26.5898Z" fill="white"/>
<path d="M101.027 24.2754H102.197V32.5187H101.027V24.2754Z" fill="white"/>
<path d="M103.823 29.5517C103.786 29.162 103.83 28.7689 103.954 28.3975C104.077 28.0261 104.277 27.6846 104.54 27.395C104.803 27.1053 105.124 26.8739 105.482 26.7155C105.84 26.5571 106.227 26.4753 106.618 26.4753C107.009 26.4753 107.396 26.5571 107.754 26.7155C108.112 26.8739 108.433 27.1053 108.696 27.395C108.959 27.6846 109.159 28.0261 109.282 28.3975C109.406 28.7689 109.45 29.162 109.413 29.5517C109.451 29.9417 109.407 30.3354 109.284 30.7074C109.161 31.0794 108.961 31.4215 108.698 31.7117C108.434 32.0019 108.113 32.2338 107.755 32.3925C107.397 32.5512 107.01 32.6331 106.618 32.6331C106.226 32.6331 105.839 32.5512 105.481 32.3925C105.122 32.2338 104.801 32.0019 104.538 31.7117C104.275 31.4215 104.075 31.0794 103.952 30.7074C103.829 30.3354 103.785 29.9417 103.823 29.5517ZM108.209 29.5517C108.209 28.2665 107.632 27.515 106.62 27.515C105.603 27.515 105.031 28.2665 105.031 29.5517C105.031 30.8472 105.603 31.5929 106.62 31.5929C107.632 31.5929 108.209 30.842 108.209 29.5517H108.209Z" fill="white"/>
<path d="M110.645 30.8419C110.645 29.7747 111.439 29.1595 112.849 29.072L114.454 28.9794V28.4677C114.454 27.8415 114.04 27.4879 113.241 27.4879C112.588 27.4879 112.135 27.7277 112.006 28.1469H110.873C110.993 27.1285 111.95 26.4753 113.295 26.4753C114.781 26.4753 115.619 27.2153 115.619 28.4677V32.5186H114.493V31.6854H114.4C114.212 31.9843 113.949 32.228 113.636 32.3915C113.323 32.555 112.973 32.6326 112.62 32.6163C112.371 32.6422 112.12 32.6156 111.882 32.5384C111.644 32.4611 111.425 32.3348 111.239 32.1676C111.053 32.0004 110.904 31.7961 110.801 31.5678C110.699 31.3394 110.646 31.0922 110.645 30.8419ZM114.454 30.3353V29.8396L113.007 29.9322C112.191 29.9869 111.821 30.2646 111.821 30.7873C111.821 31.3209 112.283 31.6314 112.92 31.6314C113.106 31.6503 113.294 31.6315 113.473 31.576C113.652 31.5206 113.818 31.4297 113.961 31.3088C114.105 31.1879 114.222 31.0394 114.307 30.8722C114.391 30.7049 114.441 30.5223 114.454 30.3353Z" fill="white"/>
<path d="M117.156 29.5517C117.156 27.6783 118.119 26.4915 119.616 26.4915C119.987 26.4744 120.354 26.5632 120.676 26.7474C120.998 26.9316 121.261 27.2036 121.434 27.5317H121.521V24.2754H122.691V32.5187H121.57V31.582H121.477C121.291 31.9078 121.019 32.1765 120.691 32.3588C120.363 32.5412 119.991 32.6302 119.616 32.6164C118.109 32.6165 117.156 31.4296 117.156 29.5517ZM118.364 29.5517C118.364 30.8092 118.957 31.5659 119.948 31.5659C120.934 31.5659 121.543 30.7983 121.543 29.5569C121.543 28.3212 120.927 27.5426 119.948 27.5426C118.963 27.5426 118.364 28.3045 118.364 29.5517H118.364Z" fill="white"/>
<path d="M127.53 29.5518C127.493 29.1622 127.537 28.7691 127.661 28.3977C127.784 28.0263 127.984 27.6848 128.247 27.3952C128.51 27.1055 128.831 26.8741 129.189 26.7158C129.546 26.5574 129.933 26.4756 130.325 26.4756C130.716 26.4756 131.103 26.5574 131.461 26.7158C131.818 26.8741 132.139 27.1055 132.402 27.3952C132.665 27.6848 132.865 28.0263 132.989 28.3977C133.112 28.7691 133.157 29.1622 133.12 29.5518C133.157 29.9418 133.113 30.3355 132.99 30.7075C132.867 31.0795 132.667 31.4216 132.404 31.7118C132.141 32.002 131.82 32.2339 131.462 32.3926C131.104 32.5513 130.716 32.6333 130.325 32.6333C129.933 32.6333 129.546 32.5513 129.187 32.3926C128.829 32.2339 128.508 32.002 128.245 31.7118C127.982 31.4216 127.782 31.0795 127.659 30.7075C127.536 30.3355 127.492 29.9418 127.53 29.5518ZM131.916 29.5518C131.916 28.2667 131.339 27.5151 130.327 27.5151C129.31 27.5151 128.738 28.2667 128.738 29.5518C128.738 30.8473 129.31 31.593 130.327 31.593C131.339 31.593 131.916 30.8421 131.916 29.5518Z" fill="white"/>
<path d="M134.688 26.5898H135.814V27.5316H135.902C136.05 27.1933 136.3 26.9098 136.617 26.7204C136.934 26.5311 137.302 26.4454 137.67 26.4753C137.959 26.4536 138.248 26.4971 138.518 26.6026C138.787 26.708 139.029 26.8728 139.226 27.0845C139.423 27.2963 139.57 27.5497 139.656 27.826C139.741 28.1023 139.764 28.3943 139.722 28.6805V32.5186H138.552V28.9743C138.552 28.0215 138.138 27.5477 137.273 27.5477C137.077 27.5386 136.882 27.5719 136.7 27.6454C136.519 27.7189 136.355 27.8309 136.22 27.9736C136.086 28.1163 135.984 28.2864 135.922 28.4722C135.859 28.658 135.837 28.8552 135.858 29.0502V32.5186H134.688V26.5898Z" fill="white"/>
<path d="M146.33 25.1138V26.6169H147.614V27.6025H146.33V30.6511C146.33 31.2721 146.586 31.5441 147.168 31.5441C147.318 31.5436 147.466 31.5346 147.614 31.5171V32.4917C147.404 32.5293 147.192 32.5493 146.978 32.5515C145.678 32.5515 145.16 32.0938 145.16 30.9507V27.6024H144.219V26.6168H145.16V25.1138H146.33Z" fill="white"/>
<path d="M149.212 24.2754H150.371V27.5426H150.464C150.619 27.2012 150.876 26.916 151.2 26.726C151.523 26.5359 151.897 26.4502 152.271 26.4806C152.558 26.4649 152.844 26.5129 153.111 26.6209C153.377 26.7289 153.616 26.8944 153.811 27.1055C154.006 27.3166 154.152 27.5681 154.238 27.8422C154.325 28.1162 154.35 28.406 154.312 28.6909V32.5187H153.141V28.9795C153.141 28.0325 152.7 27.5529 151.874 27.5529C151.673 27.5364 151.471 27.5641 151.281 27.6339C151.092 27.7038 150.92 27.8141 150.778 27.9573C150.636 28.1005 150.527 28.273 150.458 28.4628C150.39 28.6526 150.364 28.855 150.382 29.056V32.5187H149.212L149.212 24.2754Z" fill="white"/>
<path d="M161.132 30.9179C160.973 31.4598 160.628 31.9285 160.159 32.242C159.69 32.5556 159.125 32.694 158.564 32.6332C158.173 32.6435 157.785 32.5687 157.427 32.4139C157.068 32.2592 156.747 32.0282 156.487 31.737C156.226 31.4459 156.032 31.1015 155.918 30.7278C155.804 30.3541 155.773 29.96 155.826 29.573C155.774 29.1847 155.806 28.7898 155.92 28.415C156.034 28.0401 156.227 27.6942 156.486 27.4004C156.745 27.1067 157.064 26.8721 157.422 26.7126C157.779 26.553 158.167 26.4721 158.559 26.4754C160.208 26.4754 161.202 27.6025 161.202 29.4643V29.8726H157.018V29.9381C156.999 30.1557 157.027 30.3747 157.098 30.5811C157.169 30.7875 157.283 30.9767 157.431 31.1366C157.58 31.2965 157.76 31.4236 157.961 31.5097C158.161 31.5958 158.378 31.6391 158.596 31.6366C158.876 31.6702 159.159 31.6198 159.41 31.4918C159.661 31.3639 159.869 31.1641 160.006 30.9179L161.132 30.9179ZM157.017 29.0072H160.011C160.026 28.8082 159.999 28.6083 159.932 28.4204C159.864 28.2325 159.759 28.0607 159.621 27.9161C159.484 27.7714 159.318 27.6571 159.134 27.5805C158.95 27.5039 158.751 27.4667 158.552 27.4713C158.35 27.4688 158.149 27.5068 157.962 27.583C157.774 27.6593 157.604 27.7724 157.461 27.9155C157.318 28.0587 157.205 28.229 157.129 28.4165C157.053 28.604 157.015 28.8048 157.018 29.0072H157.017Z" fill="white"/>
</svg>
