<svg width="204" height="79" viewBox="0 0 204 79" fill="none" xmlns="http://www.w3.org/2000/svg">
<g clip-path="url(#clip0_12180_2681)">
<path d="M184.258 65.8334H19.7418C16.1224 65.8334 13.1611 62.8709 13.1611 59.2501V19.7501C13.1611 16.1292 16.1224 13.1667 19.7418 13.1667H184.258C187.877 13.1667 190.839 16.1292 190.839 19.7501V59.2501C190.839 62.8709 187.877 65.8334 184.258 65.8334Z" fill="black"/>
<path d="M184.258 14.2201C187.311 14.2201 189.786 16.6954 189.786 19.7501V59.2501C189.786 62.3047 187.311 64.7801 184.258 64.7801H19.7418C16.6884 64.7801 14.214 62.3047 14.214 59.2501V19.7501C14.214 16.6954 16.6884 14.2201 19.7418 14.2201H184.258ZM184.258 13.1667H19.7418C16.1224 13.1667 13.1611 16.1292 13.1611 19.7501V59.2501C13.1611 62.8709 16.1224 65.8334 19.7418 65.8334H184.258C187.877 65.8334 190.839 62.8709 190.839 59.2501V19.7501C190.839 16.1292 187.877 13.1667 184.258 13.1667Z" fill="#A6A6A6"/>
<path d="M75.5719 26.6493C75.5719 27.7553 75.2429 28.6375 74.5848 29.2827C73.8478 30.0595 72.8739 30.4545 71.6893 30.4545C70.5443 30.4545 69.5835 30.0595 68.7807 29.2695C67.9778 28.4795 67.583 27.492 67.583 26.3333C67.583 25.1615 67.9778 24.1872 68.7807 23.3972C69.5835 22.6072 70.5443 22.2122 71.6893 22.2122C72.2553 22.2122 72.7949 22.3175 73.3082 22.5413C73.8215 22.7652 74.2295 23.0548 74.5453 23.4235L73.8478 24.1213C73.3213 23.5025 72.6106 23.1865 71.6893 23.1865C70.8602 23.1865 70.1363 23.4762 69.5309 24.0687C68.9255 24.648 68.6228 25.4117 68.6228 26.3465C68.6228 27.2813 68.9255 28.045 69.5309 28.6243C70.1363 29.2037 70.8602 29.5065 71.6893 29.5065C72.5711 29.5065 73.3082 29.2168 73.9004 28.6243C74.2821 28.2425 74.5059 27.7027 74.5585 27.018H71.6893V26.07H75.5193C75.5456 26.2675 75.5719 26.465 75.5719 26.6493Z" fill="white" stroke="white" stroke-width="0.2" stroke-miterlimit="10"/>
<path d="M81.6397 23.3576H78.0466V25.8593H81.2843V26.8073H78.0466V29.309H81.6397V30.2833H77.0332V22.3833H81.6397V23.3576Z" fill="white" stroke="white" stroke-width="0.2" stroke-miterlimit="10"/>
<path d="M85.9169 30.2833H84.9035V23.3576H82.6924V22.3833H88.1148V23.3576H85.9037V30.2833H85.9169Z" fill="white" stroke="white" stroke-width="0.2" stroke-miterlimit="10"/>
<path d="M92.0498 30.2833V22.3833H93.0632V30.2833H92.0498Z" fill="white" stroke="white" stroke-width="0.2" stroke-miterlimit="10"/>
<path d="M97.5644 30.2833H96.5509V23.3576H94.3398V22.3833H99.7623V23.3576H97.5512V30.2833H97.5644Z" fill="white" stroke="white" stroke-width="0.2" stroke-miterlimit="10"/>
<path d="M110.041 29.2563C109.264 30.0595 108.304 30.4545 107.145 30.4545C105.987 30.4545 105.027 30.0595 104.25 29.2563C103.473 28.4532 103.092 27.4788 103.092 26.3333C103.092 25.1878 103.473 24.2003 104.25 23.4103C105.027 22.6072 105.987 22.2122 107.145 22.2122C108.291 22.2122 109.251 22.6072 110.041 23.4103C110.817 24.2135 111.212 25.1878 111.212 26.3333C111.199 27.492 110.817 28.4663 110.041 29.2563ZM105 28.598C105.579 29.1905 106.303 29.4802 107.145 29.4802C107.988 29.4802 108.712 29.1905 109.291 28.598C109.87 28.0055 110.173 27.255 110.173 26.3333C110.173 25.4117 109.883 24.6612 109.291 24.0687C108.712 23.4762 107.988 23.1865 107.145 23.1865C106.303 23.1865 105.579 23.4762 105 24.0687C104.421 24.6612 104.118 25.4117 104.118 26.3333C104.118 27.255 104.421 28.0055 105 28.598Z" fill="white" stroke="white" stroke-width="0.2" stroke-miterlimit="10"/>
<path d="M112.634 30.2833V22.3833H113.871L117.714 28.5321H117.754L117.714 27.0048V22.3833H118.727V30.2833H117.675L113.66 23.8448H113.621L113.66 25.3721V30.2833H112.634Z" fill="white" stroke="white" stroke-width="0.2" stroke-miterlimit="10"/>
<path d="M102.842 41.8041C99.749 41.8041 97.222 44.1609 97.222 47.3999C97.222 50.6257 99.749 52.9957 102.842 52.9957C105.935 52.9957 108.462 50.6257 108.462 47.3999C108.462 44.1609 105.935 41.8041 102.842 41.8041ZM102.842 50.7969C101.144 50.7969 99.6832 49.4012 99.6832 47.3999C99.6832 45.3854 101.144 44.0029 102.842 44.0029C104.54 44.0029 106.001 45.3854 106.001 47.3999C106.001 49.4012 104.527 50.7969 102.842 50.7969ZM90.5756 41.8041C87.4827 41.8041 84.9557 44.1609 84.9557 47.3999C84.9557 50.6257 87.4827 52.9957 90.5756 52.9957C93.6685 52.9957 96.1954 50.6257 96.1954 47.3999C96.1954 44.1609 93.6685 41.8041 90.5756 41.8041ZM90.5756 50.7969C88.8778 50.7969 87.4169 49.4012 87.4169 47.3999C87.4169 45.3854 88.8778 44.0029 90.5756 44.0029C92.2734 44.0029 93.7343 45.3854 93.7343 47.3999C93.7343 49.4012 92.2734 50.7969 90.5756 50.7969ZM75.9929 43.5289V45.8989H81.6785C81.5075 47.2287 81.06 48.2162 80.3887 48.8877C79.5596 49.7172 78.2698 50.6257 76.006 50.6257C72.5051 50.6257 69.7676 47.8081 69.7676 44.3057C69.7676 40.8034 72.5051 37.9857 76.006 37.9857C77.8881 37.9857 79.27 38.7231 80.2834 39.6842L81.9549 38.0121C80.5335 36.6559 78.6515 35.6157 75.9929 35.6157C71.2022 35.6157 67.1748 39.5131 67.1748 44.3189C67.1748 49.1116 71.2022 53.0221 75.9929 53.0221C78.5856 53.0221 80.5335 52.1794 82.0602 50.5862C83.6264 49.0194 84.1134 46.8074 84.1134 45.0299C84.1134 44.4769 84.0739 43.9634 83.9818 43.5421H75.9929V43.5289ZM135.627 45.3722C135.166 44.1214 133.745 41.8041 130.836 41.8041C127.954 41.8041 125.558 44.0687 125.558 47.3999C125.558 50.5336 127.927 52.9957 131.112 52.9957C133.679 52.9957 135.166 51.4289 135.771 50.5204L133.863 49.2432C133.231 50.1781 132.363 50.7969 131.112 50.7969C129.862 50.7969 128.967 50.2176 128.401 49.0984L135.89 46.0042L135.627 45.3722ZM127.993 47.2419C127.927 45.0826 129.665 43.9766 130.915 43.9766C131.889 43.9766 132.718 44.4637 132.994 45.1616L127.993 47.2419ZM121.913 52.6666H124.374V36.2082H121.913V52.6666ZM117.885 43.0549H117.793C117.24 42.3966 116.187 41.8041 114.845 41.8041C112.042 41.8041 109.475 44.2662 109.475 47.4262C109.475 50.5599 112.042 53.0089 114.845 53.0089C116.174 53.0089 117.24 52.4164 117.793 51.7317H117.872V52.5349C117.872 54.6811 116.727 55.8266 114.884 55.8266C113.384 55.8266 112.45 54.7469 112.068 53.8384L109.923 54.7337C110.541 56.2216 112.173 58.0386 114.884 58.0386C117.767 58.0386 120.202 56.3401 120.202 52.2057V42.1464H117.872V43.0549H117.885ZM115.056 50.7969C113.358 50.7969 111.936 49.3749 111.936 47.4262C111.936 45.4512 113.358 44.0161 115.056 44.0161C116.727 44.0161 118.043 45.4644 118.043 47.4262C118.056 49.3749 116.74 50.7969 115.056 50.7969ZM147.156 36.2082H141.273V52.6666H143.734V46.4256H147.169C149.894 46.4256 152.565 44.4506 152.565 41.3169C152.565 38.1832 149.867 36.2082 147.156 36.2082ZM147.209 44.1346H143.721V38.4861H147.209C149.051 38.4861 150.091 40.0134 150.091 41.3037C150.091 42.5941 149.051 44.1346 147.209 44.1346ZM162.397 41.7777C160.62 41.7777 158.777 42.5677 158.014 44.2926L160.199 45.2011C160.659 44.2926 161.528 43.9897 162.436 43.9897C163.7 43.9897 165.003 44.7534 165.016 46.1096V46.2807C164.568 46.0306 163.621 45.6487 162.449 45.6487C160.094 45.6487 157.711 46.9391 157.711 49.3486C157.711 51.5474 159.633 52.9694 161.791 52.9694C163.436 52.9694 164.358 52.2321 164.924 51.3631H165.003V52.6402H167.372V46.3334C167.385 43.4104 165.2 41.7777 162.397 41.7777ZM162.094 50.7969C161.291 50.7969 160.172 50.3887 160.172 49.4012C160.172 48.1372 161.568 47.6501 162.778 47.6501C163.858 47.6501 164.371 47.8871 165.016 48.2031C164.832 49.7172 163.515 50.7969 162.094 50.7969ZM176.019 42.1332L173.202 49.2696H173.123L170.201 42.1332H167.556L171.939 52.1136L169.438 57.6567H172.004L178.756 42.1332H176.019ZM153.908 52.6666H156.369V36.2082H153.908V52.6666Z" fill="white"/>
<path d="M26.9013 23.0944C26.5196 23.5025 26.2959 24.1345 26.2959 24.9377V54.0624C26.2959 54.8787 26.5196 55.5107 26.9013 55.9057L26.9934 55.9979L43.3003 39.6975V39.5V39.3025L26.9934 23.0022L26.9013 23.0944Z" fill="url(#paint0_linear_12180_2681)"/>
<path d="M48.7364 45.1352L43.3008 39.6973V39.4998V39.3023L48.7364 33.8645L48.8548 33.9303L55.2907 37.5907C57.1333 38.6308 57.1333 40.3425 55.2907 41.3958L48.8548 45.0562L48.7364 45.1352Z" fill="url(#paint1_linear_12180_2681)"/>
<path d="M48.8544 45.0563L43.3003 39.5L26.9014 55.9057C27.5068 56.5508 28.507 56.6298 29.6389 55.9847L48.8544 45.0563Z" fill="url(#paint2_linear_12180_2681)"/>
<path d="M48.8549 33.9436L29.6262 23.0153C28.4943 22.3701 27.4941 22.4491 26.8887 23.0943L43.3008 39.4999L48.8549 33.9436Z" fill="url(#paint3_linear_12180_2681)"/>
<path opacity="0.2" d="M48.7359 44.9377L29.6258 55.8002C28.5597 56.4059 27.5989 56.3664 26.9935 55.8134L26.9014 55.9056L26.9935 55.9977C27.6121 56.5507 28.5597 56.5902 29.6258 55.9846L48.8544 45.0562L48.7359 44.9377Z" fill="black"/>
<path opacity="0.12" d="M26.9013 55.7213C26.5196 55.3131 26.2959 54.6811 26.2959 53.8779V54.0754C26.2959 54.8918 26.5196 55.5238 26.9013 55.9188L26.9934 55.8266L26.9013 55.7213Z" fill="black"/>
<path opacity="0.12" d="M55.2911 41.2117L48.7236 44.9378L48.8421 45.0563L55.278 41.396C56.1992 40.8693 56.6599 40.1847 56.6599 39.5C56.5941 40.1188 56.1334 40.7377 55.2911 41.2117Z" fill="black"/>
<path opacity="0.25" d="M29.6262 23.1997L55.2907 37.7884C56.1198 38.2624 56.5937 38.868 56.6726 39.5C56.6726 38.8154 56.212 38.1175 55.2907 37.604L29.6262 23.0154C27.7836 21.9752 26.2832 22.8442 26.2832 24.9509V25.1484C26.2832 23.0285 27.7968 22.1595 29.6262 23.1997Z" fill="white"/>
</g>
<defs>
<linearGradient id="paint0_linear_12180_2681" x1="41.8522" y1="24.6345" x2="19.7553" y2="46.7223" gradientUnits="userSpaceOnUse">
<stop stop-color="#00A0FF"/>
<stop offset="0.00657445" stop-color="#00A1FF"/>
<stop offset="0.2601" stop-color="#00BEFF"/>
<stop offset="0.5122" stop-color="#00D2FF"/>
<stop offset="0.7604" stop-color="#00DFFF"/>
<stop offset="1" stop-color="#00E3FF"/>
</linearGradient>
<linearGradient id="paint1_linear_12180_2681" x1="57.6919" y1="39.5017" x2="25.8456" y2="39.5017" gradientUnits="userSpaceOnUse">
<stop stop-color="#FFE000"/>
<stop offset="0.4087" stop-color="#FFBD00"/>
<stop offset="0.7754" stop-color="#FFA500"/>
<stop offset="1" stop-color="#FF9C00"/>
</linearGradient>
<linearGradient id="paint2_linear_12180_2681" x1="45.8365" y1="42.5232" x2="15.8714" y2="72.4761" gradientUnits="userSpaceOnUse">
<stop stop-color="#FF3A44"/>
<stop offset="1" stop-color="#C31162"/>
</linearGradient>
<linearGradient id="paint3_linear_12180_2681" x1="22.7656" y1="13.3986" x2="36.1464" y2="26.7738" gradientUnits="userSpaceOnUse">
<stop stop-color="#32A071"/>
<stop offset="0.0685" stop-color="#2DA771"/>
<stop offset="0.4762" stop-color="#15CF74"/>
<stop offset="0.8009" stop-color="#06E775"/>
<stop offset="1" stop-color="#00F076"/>
</linearGradient>
<clipPath id="clip0_12180_2681">
<rect width="204" height="79" fill="white"/>
</clipPath>
</defs>
</svg>
