<svg width="148" height="45" viewBox="0 0 148 45" fill="none" xmlns="http://www.w3.org/2000/svg">
<path d="M55.1145 24.9578C54.2811 25.5274 53.1826 25.9831 51.819 26.3249C50.4932 26.6667 49.2053 26.8376 47.9553 26.8376C45.8719 26.8376 43.9779 26.3249 42.2734 25.2996C40.5688 24.2362 39.2051 22.8122 38.1824 21.0273C37.1975 19.2045 36.7051 17.1538 36.7051 14.8753C36.7051 12.5968 37.1975 10.5841 38.1824 8.83721C39.2051 7.09034 40.5688 5.72322 42.2734 4.73586C43.9779 3.71052 45.9098 3.19785 48.0689 3.19785C50.3417 3.19785 52.2546 3.61558 53.8076 4.45104C54.338 4.6789 54.6031 5.07764 54.6031 5.64727C54.6031 5.72322 54.6031 5.81816 54.6031 5.93209C54.6031 6.04601 54.5652 6.14095 54.4895 6.2169C54.3758 6.40678 54.1864 6.57767 53.9213 6.72957C53.6561 6.88147 53.372 6.91945 53.069 6.84349C51.5917 6.00804 49.9061 5.59031 48.0121 5.59031C46.3454 5.59031 44.8492 6.00804 43.5234 6.84349C42.2355 7.64098 41.2317 8.74227 40.512 10.1474C39.7923 11.5145 39.4324 13.0905 39.4324 14.8753C39.4324 17.6855 40.2279 19.964 41.8188 21.7109C43.4097 23.4198 45.531 24.3122 48.1826 24.3881C49.3189 24.3881 50.3985 24.1983 51.4212 23.8185C52.4819 23.4008 53.2773 22.9831 53.8076 22.5653C53.9213 22.4894 54.0349 22.4324 54.1486 22.3944C54.2622 22.3565 54.3758 22.3375 54.4895 22.3375C54.7925 22.3375 55.0766 22.4704 55.3418 22.7362C55.6069 23.002 55.7395 23.2869 55.7395 23.5907C55.7395 24.0084 55.5312 24.4641 55.1145 24.9578Z" fill="url(#paint0_linear_2529_7041)"/>
<path d="M66.0739 26.8376C63.7254 26.8376 61.7936 26.0401 60.2784 24.4451C58.7632 22.8122 58.0056 20.7235 58.0056 18.1792C58.0056 15.7108 58.7632 13.6981 60.2784 12.1411C61.7936 10.5461 63.7254 9.74862 66.0739 9.74862C68.4982 9.74862 70.449 10.6031 71.9263 12.312V11.2866C71.9263 10.8689 72.0589 10.5651 72.324 10.3752C72.5892 10.1474 72.8733 10.0334 73.1763 10.0334C73.5172 10.0334 73.8203 10.1474 74.0854 10.3752C74.3506 10.5651 74.4832 10.8689 74.4832 11.2866V25.5274C74.4832 25.9072 74.3506 26.211 74.0854 26.4388C73.8582 26.7046 73.5551 26.8376 73.1763 26.8376C72.7975 26.8376 72.4945 26.7046 72.2672 26.4388C72.0399 26.211 71.9263 25.9072 71.9263 25.5274V24.1603C71.2445 24.9957 70.3922 25.6603 69.3694 26.154C68.3846 26.6097 67.2861 26.8376 66.0739 26.8376ZM66.0739 24.5021C67.8543 24.5021 69.2747 23.9704 70.3354 22.9071C71.396 21.8438 71.9263 20.2678 71.9263 18.1792C71.9263 16.1665 71.396 14.6474 70.3354 13.6221C69.2747 12.5968 67.8543 12.0841 66.0739 12.0841C64.4451 12.0841 63.1193 12.6727 62.0966 13.85C61.1117 15.0272 60.6193 16.4703 60.6193 18.1792C60.6193 19.964 61.1117 21.464 62.0966 22.6792C63.1193 23.8945 64.4451 24.5021 66.0739 24.5021Z" fill="url(#paint1_linear_2529_7041)"/>
<path d="M81.3214 18.2361V25.5274C81.3214 25.9072 81.2078 26.211 80.9805 26.4388C80.7533 26.7046 80.4502 26.8376 80.0714 26.8376C79.6926 26.8376 79.3707 26.7046 79.1055 26.4388C78.8782 26.211 78.7646 25.9072 78.7646 25.5274V11.2866C78.7646 10.8689 78.8972 10.5651 79.1623 10.3752C79.4275 10.1474 79.7305 10.0334 80.0714 10.0334C80.3745 10.0334 80.6586 10.1474 80.9237 10.3752C81.1889 10.5651 81.3214 10.8689 81.3214 11.2866V12.6537C81.776 11.7044 82.5336 10.9828 83.5942 10.4891C84.6548 9.99546 85.6586 9.74862 86.6056 9.74862C87.1738 9.74862 87.742 9.84356 88.3102 10.0334C88.689 10.1474 88.9542 10.3562 89.1057 10.66C89.2951 10.9638 89.3329 11.3056 89.2193 11.6854C88.9542 12.4449 88.4428 12.7487 87.6852 12.5968C87.0034 12.4069 86.4352 12.312 85.9806 12.312C84.5033 12.312 83.348 12.8816 82.5146 14.0209C81.7192 15.1221 81.3214 16.5272 81.3214 18.2361Z" fill="url(#paint2_linear_2529_7041)"/>
<path d="M93.7213 26.8376C93.3425 26.8376 93.0206 26.7046 92.7554 26.4388C92.5281 26.173 92.4145 25.8692 92.4145 25.5274V4.50801C92.4145 4.09028 92.5281 3.76749 92.7554 3.53963C93.0206 3.31178 93.3425 3.19785 93.7213 3.19785C94.138 3.19785 94.4789 3.31178 94.7441 3.53963C95.0092 3.76749 95.1418 4.09028 95.1418 4.50801V25.5274C95.1418 25.8692 95.0092 26.173 94.7441 26.4388C94.4789 26.7046 94.138 26.8376 93.7213 26.8376Z" fill="url(#paint3_linear_2529_7041)"/>
<path d="M114.358 26.8376C113.979 26.8376 113.657 26.7046 113.392 26.4388C113.165 26.211 113.051 25.9072 113.051 25.5274V17.7804C113.051 15.8816 112.654 14.4766 111.858 13.5651C111.063 12.6537 109.945 12.198 108.506 12.198C107.18 12.198 106.082 12.5208 105.21 13.1664C104.377 13.774 103.771 14.5525 103.392 15.5019C103.013 16.4133 102.824 17.3247 102.824 18.2361V25.5274C102.824 25.9072 102.71 26.211 102.483 26.4388C102.256 26.7046 101.953 26.8376 101.574 26.8376C101.195 26.8376 100.873 26.7046 100.608 26.4388C100.381 26.211 100.267 25.9072 100.267 25.5274V11.2866C100.267 10.8689 100.4 10.5651 100.665 10.3752C100.93 10.1474 101.233 10.0334 101.574 10.0334C101.877 10.0334 102.161 10.1474 102.426 10.3752C102.691 10.5651 102.824 10.8689 102.824 11.2866V12.5398C103.582 11.6664 104.491 10.9828 105.551 10.4891C106.612 9.99546 107.71 9.74862 108.847 9.74862C110.779 9.74862 112.389 10.3942 113.676 11.6854C114.964 12.9386 115.608 14.8943 115.608 17.5526V25.5274C115.608 25.9072 115.495 26.211 115.267 26.4388C115.04 26.7046 114.737 26.8376 114.358 26.8376Z" fill="url(#paint4_linear_2529_7041)"/>
<path d="M122.567 26.8376C122.264 26.8376 121.98 26.7236 121.715 26.4958C121.449 26.3059 121.317 26.0021 121.317 25.5844V13.1664C121.317 12.7867 121.127 12.5968 120.749 12.5968H119.044C118.741 12.5968 118.476 12.4828 118.249 12.255C118.021 12.0271 117.908 11.7613 117.908 11.4575C117.908 11.1537 118.021 10.8879 118.249 10.66C118.476 10.4322 118.741 10.3182 119.044 10.3182H120.749C121.127 10.3182 121.317 10.1284 121.317 9.74862V7.69794C121.317 5.9131 121.828 4.52699 122.851 3.53963C123.874 2.55227 125.181 2.05859 126.771 2.05859C127.074 2.05859 127.415 2.09657 127.794 2.17252C128.211 2.21049 128.552 2.28644 128.817 2.40037C129.309 2.55227 129.556 2.91304 129.556 3.48267C129.556 3.9004 129.404 4.26117 129.101 4.56497C128.798 4.8308 128.419 4.90675 127.965 4.79282C127.737 4.71687 127.491 4.65991 127.226 4.62193C126.999 4.58396 126.79 4.56497 126.601 4.56497C125.881 4.56497 125.237 4.8308 124.669 5.36246C124.139 5.85614 123.874 6.67261 123.874 7.81187V9.74862C123.874 10.1284 124.063 10.3182 124.442 10.3182H127.851C128.154 10.3182 128.419 10.4322 128.646 10.66C128.874 10.8879 128.987 11.1537 128.987 11.4575C128.987 11.7613 128.874 12.0271 128.646 12.255C128.419 12.4828 128.154 12.5968 127.851 12.5968H124.442C124.063 12.5968 123.874 12.7867 123.874 13.1664V25.5844C123.874 26.0021 123.741 26.3059 123.476 26.4958C123.211 26.7236 122.908 26.8376 122.567 26.8376Z" fill="url(#paint5_linear_2529_7041)"/>
<path d="M139.59 26.8376C137.999 26.8376 136.579 26.4578 135.329 25.6983C134.079 24.9388 133.075 23.9134 132.318 22.6223C131.598 21.2931 131.238 19.8121 131.238 18.1792C131.238 16.5462 131.598 15.1032 132.318 13.85C133.075 12.5968 134.079 11.6094 135.329 10.8879C136.579 10.1284 137.999 9.74862 139.59 9.74862C141.181 9.74862 142.602 10.1284 143.852 10.8879C145.14 11.6094 146.144 12.5968 146.863 13.85C147.621 15.1032 148 16.5462 148 18.1792C148 19.8121 147.621 21.2931 146.863 22.6223C146.144 23.9134 145.14 24.9388 143.852 25.6983C142.602 26.4578 141.181 26.8376 139.59 26.8376ZM139.59 24.5021C141.371 24.5021 142.791 23.8945 143.852 22.6792C144.912 21.464 145.443 19.964 145.443 18.1792C145.443 16.4703 144.912 15.0272 143.852 13.85C142.791 12.6727 141.371 12.0841 139.59 12.0841C137.848 12.0841 136.446 12.6727 135.386 13.85C134.363 15.0272 133.852 16.4703 133.852 18.1792C133.852 19.964 134.363 21.464 135.386 22.6792C136.446 23.8945 137.848 24.5021 139.59 24.5021Z" fill="url(#paint6_linear_2529_7041)"/>
<path d="M14.2499 0C6.38995 0 0 6.38025 0 14.2283C0 22.0763 6.38995 28.4565 14.2499 28.4565C22.1098 28.4565 28.4998 22.0763 28.4998 14.2283C28.4998 6.38025 22.1098 0 14.2499 0ZM7.08402 20.9978C6.72408 21.7766 5.70392 21.9565 5.07403 21.3572C4.06226 20.3946 3.47542 18.7482 3.32992 18.0623C3.02984 17.2535 3.63 16.4147 4.49991 16.4147C8.45087 16.4147 8.43958 18.0491 7.08402 20.9978ZM14.2199 25.9693C12.0202 25.9693 11.0605 24.6313 10.6472 23.595C10.4377 23.0699 10.9756 22.6205 11.53 22.735C12.1886 22.8712 13.1019 22.9979 14.2199 22.9979C15.3823 22.9979 16.3344 22.8698 17.0204 22.7328C17.584 22.6202 18.1167 23.0922 17.8827 23.6163C17.4215 24.6495 16.4047 25.9693 14.2199 25.9693ZM14.2499 9.28581C9.44982 9.28581 6.17995 11.113 5.03996 11.8619C4.44002 12.2513 3.56992 12.0717 3.29997 11.3826C3.20999 11.1429 3.18007 10.8435 3.27005 10.5737C4.83009 5.99074 9.15 2.66583 14.25 2.66583C19.3499 2.66583 23.6699 5.9609 25.1999 10.5438C25.2899 10.8133 25.2899 11.113 25.17 11.3526C24.9 12.0415 24.0299 12.2212 23.43 11.8319C22.32 11.0829 19.0501 9.28571 14.25 9.28571L14.2499 9.28581ZM25.1398 18.0624C24.9708 18.6078 24.7195 19.3115 23.48 20.9978C22.8801 21.5969 21.83 21.4172 21.47 20.6384C20.1145 17.6898 20.0189 16.4149 23.9698 16.4149C24.8397 16.4149 25.4397 17.2536 25.1398 18.0624Z" fill="url(#paint7_linear_2529_7041)"/>
<path d="M24.0591 27.7118C23.6541 27.3075 23.6541 26.6519 24.0591 26.2476L26.2879 24.0222C26.6928 23.6178 27.3494 23.6178 27.7543 24.0222L30.3698 26.6337C31.3902 27.6526 31.3902 29.3045 30.3698 30.3233C29.3494 31.3422 27.695 31.3422 26.6746 30.3233L24.0591 27.7118Z" fill="url(#paint8_linear_2529_7041)"/>
<path d="M3.37424 44.1487C2.70515 44.1487 2.14031 44.0011 1.67972 43.7059C1.21914 43.4076 0.870589 42.9959 0.634072 42.4708C0.397555 41.9456 0.279297 41.3397 0.279297 40.653C0.279297 39.9663 0.397555 39.3603 0.634072 38.8352C0.870589 38.31 1.21914 37.8999 1.67972 37.6047C2.14031 37.3064 2.70515 37.1572 3.37424 37.1572C4.15537 37.1572 4.79334 37.3576 5.28816 37.7585C5.78298 38.1562 6.12219 38.6907 6.3058 39.3619L5.60559 39.5437C5.46244 39.0123 5.20569 38.5913 4.83535 38.2805C4.46502 37.9698 3.97798 37.8144 3.37424 37.8144C2.8483 37.8144 2.41106 37.9341 2.06251 38.1733C1.71396 38.4126 1.45099 38.7466 1.2736 39.1754C1.09933 39.6011 1.00908 40.0937 1.00285 40.653C0.999739 41.2123 1.08532 41.7048 1.2596 42.1305C1.43698 42.5562 1.70151 42.8903 2.05317 43.1326C2.40795 43.3719 2.8483 43.4915 3.37424 43.4915C3.97798 43.4915 4.46502 43.3362 4.83535 43.0254C5.20569 42.7116 5.46244 42.2905 5.60559 41.7623L6.3058 41.9441C6.12219 42.6153 5.78298 43.1513 5.28816 43.5521C4.79334 43.9499 4.15537 44.1487 3.37424 44.1487Z" fill="#192B5D"/>
<path d="M10.0433 44.0089V37.2971H10.7295V40.3221H14.4453V37.2971H15.1268V44.0089H14.4453V40.9793H10.7295V44.0089H10.0433Z" fill="#192B5D"/>
<path d="M19.142 44.0089V37.2971H23.3433V37.9543H19.8282V40.2754H22.7831V40.9326H19.8282V43.3517H23.3433V44.0089H19.142Z" fill="#192B5D"/>
<path d="M29.6585 44.1487C28.9894 44.1487 28.4246 44.0011 27.964 43.7059C27.5034 43.4076 27.1549 42.9959 26.9183 42.4708C26.6818 41.9456 26.5636 41.3397 26.5636 40.653C26.5636 39.9663 26.6818 39.3603 26.9183 38.8352C27.1549 38.31 27.5034 37.8999 27.964 37.6047C28.4246 37.3064 28.9894 37.1572 29.6585 37.1572C30.4396 37.1572 31.0776 37.3576 31.5724 37.7585C32.0673 38.1562 32.4065 38.6907 32.5901 39.3619L31.8899 39.5437C31.7467 39.0123 31.49 38.5913 31.1196 38.2805C30.7493 37.9698 30.2623 37.8144 29.6585 37.8144C29.1326 37.8144 28.6953 37.9341 28.3468 38.1733C27.9982 38.4126 27.7353 38.7466 27.5579 39.1754C27.3836 39.6011 27.2933 40.0937 27.2871 40.653C27.284 41.2123 27.3696 41.7048 27.5439 42.1305C27.7213 42.5562 27.9858 42.8903 28.3374 43.1326C28.6922 43.3719 29.1326 43.4915 29.6585 43.4915C30.2623 43.4915 30.7493 43.3362 31.1196 43.0254C31.49 42.7116 31.7467 42.2905 31.8899 41.7623L32.5901 41.9441C32.4065 42.6153 32.0673 43.1513 31.5724 43.5521C31.0776 43.9499 30.4396 44.1487 29.6585 44.1487Z" fill="#192B5D"/>
<path d="M36.3275 44.0089V37.2971H37.0137V40.4665L40.0807 37.2971H40.9583L37.826 40.5365L41.215 44.0089H40.3188L37.0137 40.653V44.0089H36.3275Z" fill="#192B5D"/>
<path d="M48.9726 44.0089V37.2971H49.6588V40.4665L52.7257 37.2971H53.6033L50.4711 40.5365L53.8601 44.0089H52.9638L49.6588 40.653V44.0089H48.9726Z" fill="#192B5D"/>
<path d="M57.3168 44.0089V37.2971H58.003V44.0089H57.3168Z" fill="#192B5D"/>
<path d="M63.3373 44.0089V41.1983L61.0827 37.2971H61.8762L63.6828 40.4153L65.48 37.2971H66.2736L64.0282 41.1983V44.0089H63.3373Z" fill="#192B5D"/>
<path d="M68.5082 44.0089L70.8236 37.2971H71.7339L74.0492 44.0089H73.335L71.1363 37.6793H71.4071L69.2224 44.0089H68.5082ZM69.5398 42.3822V41.739H73.0129V42.3822H69.5398Z" fill="#192B5D"/>
<path d="M77.5063 44.9831L77.5483 44.6428C77.6728 44.6521 77.7631 44.6273 77.8191 44.5682C77.8751 44.5092 77.9093 44.43 77.9218 44.3305C77.9342 44.2311 77.9373 44.1239 77.9311 44.0089H77.5063V43.0254H78.3046V44.1953C78.3046 44.4812 78.2314 44.6956 78.0852 44.8386C77.942 44.9815 77.7491 45.0297 77.5063 44.9831Z" fill="#192B5D"/>
<path d="M87.3636 44.0089V37.2971H89.9591C90.0245 37.2971 90.0976 37.3002 90.1785 37.3064C90.2625 37.3095 90.3466 37.3188 90.4306 37.3343C90.7822 37.3872 91.0794 37.5099 91.3222 37.7026C91.568 37.8921 91.7532 38.1314 91.8777 38.4204C92.0053 38.7093 92.0691 39.0294 92.0691 39.3805C92.0691 39.7285 92.0053 40.0471 91.8777 40.336C91.7501 40.625 91.5634 40.8658 91.3175 41.0585C91.0748 41.248 90.7791 41.3692 90.4306 41.422C90.3466 41.4345 90.2625 41.4438 90.1785 41.45C90.0976 41.4562 90.0245 41.4593 89.9591 41.4593H88.0499V44.0089H87.3636ZM88.0499 40.8068H89.9404C89.9965 40.8068 90.0618 40.8037 90.1365 40.7975C90.2112 40.7913 90.2843 40.7804 90.3559 40.7648C90.5862 40.7151 90.7745 40.6204 90.9207 40.4805C91.0701 40.3407 91.1806 40.1745 91.2522 39.9818C91.3269 39.7891 91.3642 39.5887 91.3642 39.3805C91.3642 39.1723 91.3269 38.9719 91.2522 38.7793C91.1806 38.5835 91.0701 38.4157 90.9207 38.2759C90.7745 38.136 90.5862 38.0413 90.3559 37.9915C90.2843 37.976 90.2112 37.9667 90.1365 37.9636C90.0618 37.9574 89.9965 37.9543 89.9404 37.9543H88.0499V40.8068Z" fill="#192B5D"/>
<path d="M95.7057 44.0089V37.2971H96.3919V40.3221H100.108V37.2971H100.789V44.0089H100.108V40.9793H96.3919V44.0089H95.7057Z" fill="#192B5D"/>
<path d="M104.898 44.0089V37.2971H105.584V44.0089H104.898Z" fill="#192B5D"/>
<path d="M109.691 44.0089V37.2971H112.286C112.352 37.2971 112.425 37.3002 112.506 37.3064C112.59 37.3095 112.674 37.3188 112.758 37.3343C113.11 37.3872 113.407 37.5099 113.65 37.7026C113.895 37.8921 114.081 38.1314 114.205 38.4204C114.333 38.7093 114.396 39.0294 114.396 39.3805C114.396 39.887 114.263 40.3267 113.995 40.6996C113.727 41.0725 113.345 41.3071 112.847 41.4034L112.609 41.4593H110.377V44.0089H109.691ZM113.762 44.0089L112.436 41.2776L113.094 41.0259L114.55 44.0089H113.762ZM110.377 40.8068H112.268C112.324 40.8068 112.389 40.8037 112.464 40.7975C112.539 40.7913 112.612 40.7804 112.683 40.7648C112.914 40.7151 113.102 40.6204 113.248 40.4805C113.397 40.3407 113.508 40.1745 113.579 39.9818C113.654 39.7891 113.692 39.5887 113.692 39.3805C113.692 39.1723 113.654 38.9719 113.579 38.7793C113.508 38.5835 113.397 38.4157 113.248 38.2759C113.102 38.136 112.914 38.0413 112.683 37.9915C112.612 37.976 112.539 37.9667 112.464 37.9636C112.389 37.9574 112.324 37.9543 112.268 37.9543H110.377V40.8068Z" fill="#192B5D"/>
<path d="M122.958 44.0089V37.2971H123.644V43.3517H126.837V44.0089H122.958Z" fill="#192B5D"/>
<path d="M130.434 44.0089V37.2971H131.12V44.0089H130.434Z" fill="#192B5D"/>
<path d="M136.455 44.0089V41.1983L134.2 37.2971H134.993L136.8 40.4153L138.597 37.2971H139.391L137.145 41.1983V44.0089H136.455Z" fill="#192B5D"/>
<path d="M141.625 44.0089L143.941 37.2971H144.851L147.166 44.0089H146.452L144.254 37.6793H144.524L142.34 44.0089H141.625ZM142.657 42.3822V41.739H146.13V42.3822H142.657Z" fill="#192B5D"/>
<defs>
<linearGradient id="paint0_linear_2529_7041" x1="92.3524" y1="2.05859" x2="92.3524" y2="26.8376" gradientUnits="userSpaceOnUse">
<stop stop-color="#0B5598"/>
<stop offset="1" stop-color="#192757"/>
</linearGradient>
<linearGradient id="paint1_linear_2529_7041" x1="92.3524" y1="2.05859" x2="92.3524" y2="26.8376" gradientUnits="userSpaceOnUse">
<stop stop-color="#0B5598"/>
<stop offset="1" stop-color="#192757"/>
</linearGradient>
<linearGradient id="paint2_linear_2529_7041" x1="92.3524" y1="2.05859" x2="92.3524" y2="26.8376" gradientUnits="userSpaceOnUse">
<stop stop-color="#0B5598"/>
<stop offset="1" stop-color="#192757"/>
</linearGradient>
<linearGradient id="paint3_linear_2529_7041" x1="92.3524" y1="2.05859" x2="92.3524" y2="26.8376" gradientUnits="userSpaceOnUse">
<stop stop-color="#0B5598"/>
<stop offset="1" stop-color="#192757"/>
</linearGradient>
<linearGradient id="paint4_linear_2529_7041" x1="92.3524" y1="2.05859" x2="92.3524" y2="26.8376" gradientUnits="userSpaceOnUse">
<stop stop-color="#0B5598"/>
<stop offset="1" stop-color="#192757"/>
</linearGradient>
<linearGradient id="paint5_linear_2529_7041" x1="92.3524" y1="2.05859" x2="92.3524" y2="26.8376" gradientUnits="userSpaceOnUse">
<stop stop-color="#0B5598"/>
<stop offset="1" stop-color="#192757"/>
</linearGradient>
<linearGradient id="paint6_linear_2529_7041" x1="92.3524" y1="2.05859" x2="92.3524" y2="26.8376" gradientUnits="userSpaceOnUse">
<stop stop-color="#0B5598"/>
<stop offset="1" stop-color="#192757"/>
</linearGradient>
<linearGradient id="paint7_linear_2529_7041" x1="15.5676" y1="0" x2="15.5676" y2="31.0875" gradientUnits="userSpaceOnUse">
<stop stop-color="#00D1D6"/>
<stop offset="1" stop-color="#0094A8"/>
</linearGradient>
<linearGradient id="paint8_linear_2529_7041" x1="15.5676" y1="0" x2="15.5676" y2="31.0875" gradientUnits="userSpaceOnUse">
<stop stop-color="#00D1D6"/>
<stop offset="1" stop-color="#0094A8"/>
</linearGradient>
</defs>
</svg>
